<mxfile host="Electron" agent="Mozilla/5.0 (X11; Linux x86_64) AppleWebKit/537.36 (KHTML, like Gecko) draw.io/26.1.1 Chrome/132.0.6834.210 Electron/34.3.3 Safari/537.36" version="26.1.1">
  <diagram name="Page-1" id="cXNvqrxtrKnWrfrg4qt1">
    <mxGraphModel dx="1070" dy="533" grid="1" gridSize="10" guides="1" tooltips="1" connect="1" arrows="1" fold="1" page="1" pageScale="1" pageWidth="827" pageHeight="1169" math="0" shadow="0">
      <root>
        <mxCell id="0" />
        <mxCell id="1" parent="0" />
        <mxCell id="yFJKM3KR9ptEMxP0YluX-48" style="edgeStyle=orthogonalEdgeStyle;rounded=0;orthogonalLoop=1;jettySize=auto;html=1;exitX=1;exitY=0.5;exitDx=0;exitDy=0;entryX=0;entryY=0.5;entryDx=0;entryDy=0;" edge="1" parent="1" source="yFJKM3KR9ptEMxP0YluX-1" target="yFJKM3KR9ptEMxP0YluX-2">
          <mxGeometry relative="1" as="geometry" />
        </mxCell>
        <mxCell id="yFJKM3KR9ptEMxP0YluX-1" value="" style="ellipse;whiteSpace=wrap;html=1;aspect=fixed;" vertex="1" parent="1">
          <mxGeometry x="60" y="20" width="30" height="30" as="geometry" />
        </mxCell>
        <mxCell id="yFJKM3KR9ptEMxP0YluX-49" style="edgeStyle=orthogonalEdgeStyle;rounded=0;orthogonalLoop=1;jettySize=auto;html=1;exitX=0.5;exitY=1;exitDx=0;exitDy=0;entryX=0.5;entryY=0;entryDx=0;entryDy=0;" edge="1" parent="1" source="yFJKM3KR9ptEMxP0YluX-2" target="yFJKM3KR9ptEMxP0YluX-42">
          <mxGeometry relative="1" as="geometry" />
        </mxCell>
        <mxCell id="yFJKM3KR9ptEMxP0YluX-2" value="Вычисляется текущее время (TimeNow)" style="rounded=0;whiteSpace=wrap;html=1;" vertex="1" parent="1">
          <mxGeometry x="150" y="10" width="165" height="50" as="geometry" />
        </mxCell>
        <mxCell id="yFJKM3KR9ptEMxP0YluX-41" style="edgeStyle=orthogonalEdgeStyle;rounded=0;orthogonalLoop=1;jettySize=auto;html=1;exitX=0.5;exitY=1;exitDx=0;exitDy=0;" edge="1" parent="1">
          <mxGeometry relative="1" as="geometry">
            <mxPoint x="427.5" y="280" as="sourcePoint" />
            <mxPoint x="427.5" y="280" as="targetPoint" />
          </mxGeometry>
        </mxCell>
        <mxCell id="yFJKM3KR9ptEMxP0YluX-50" value="" style="edgeStyle=orthogonalEdgeStyle;rounded=0;orthogonalLoop=1;jettySize=auto;html=1;" edge="1" parent="1" source="yFJKM3KR9ptEMxP0YluX-42" target="yFJKM3KR9ptEMxP0YluX-45">
          <mxGeometry relative="1" as="geometry" />
        </mxCell>
        <mxCell id="yFJKM3KR9ptEMxP0YluX-42" value="Получаем событие" style="rounded=0;whiteSpace=wrap;html=1;" vertex="1" parent="1">
          <mxGeometry x="147.5" y="90" width="167.5" height="50" as="geometry" />
        </mxCell>
        <mxCell id="yFJKM3KR9ptEMxP0YluX-44" value="Обработка связанного таймера" style="shape=process;whiteSpace=wrap;html=1;backgroundOutline=1;" vertex="1" parent="1">
          <mxGeometry x="145" y="170" width="175" height="50" as="geometry" />
        </mxCell>
        <mxCell id="yFJKM3KR9ptEMxP0YluX-51" value="" style="edgeStyle=orthogonalEdgeStyle;rounded=0;orthogonalLoop=1;jettySize=auto;html=1;" edge="1" parent="1" source="yFJKM3KR9ptEMxP0YluX-45" target="yFJKM3KR9ptEMxP0YluX-46">
          <mxGeometry relative="1" as="geometry" />
        </mxCell>
        <mxCell id="yFJKM3KR9ptEMxP0YluX-45" value="Обработка связанного сигнала" style="shape=process;whiteSpace=wrap;html=1;backgroundOutline=1;" vertex="1" parent="1">
          <mxGeometry x="143.75" y="250" width="175" height="50" as="geometry" />
        </mxCell>
        <mxCell id="yFJKM3KR9ptEMxP0YluX-52" value="Да" style="edgeStyle=orthogonalEdgeStyle;rounded=0;orthogonalLoop=1;jettySize=auto;html=1;" edge="1" parent="1" source="yFJKM3KR9ptEMxP0YluX-46" target="yFJKM3KR9ptEMxP0YluX-47">
          <mxGeometry relative="1" as="geometry" />
        </mxCell>
        <mxCell id="yFJKM3KR9ptEMxP0YluX-53" value="Нет" style="edgeStyle=orthogonalEdgeStyle;rounded=0;orthogonalLoop=1;jettySize=auto;html=1;exitX=0.5;exitY=1;exitDx=0;exitDy=0;entryX=0;entryY=0.5;entryDx=0;entryDy=0;" edge="1" parent="1" source="yFJKM3KR9ptEMxP0YluX-46" target="yFJKM3KR9ptEMxP0YluX-42">
          <mxGeometry relative="1" as="geometry">
            <Array as="points">
              <mxPoint x="231" y="420" />
              <mxPoint x="90" y="420" />
              <mxPoint x="90" y="115" />
            </Array>
          </mxGeometry>
        </mxCell>
        <mxCell id="yFJKM3KR9ptEMxP0YluX-46" value="События закончились?" style="rhombus;whiteSpace=wrap;html=1;" vertex="1" parent="1">
          <mxGeometry x="147.81" y="330" width="166.88" height="70" as="geometry" />
        </mxCell>
        <mxCell id="yFJKM3KR9ptEMxP0YluX-47" value="" style="ellipse;whiteSpace=wrap;html=1;aspect=fixed;" vertex="1" parent="1">
          <mxGeometry x="384" y="350" width="30" height="30" as="geometry" />
        </mxCell>
      </root>
    </mxGraphModel>
  </diagram>
</mxfile>
